<svg xmlns="http://www.w3.org/2000/svg" viewBox="0 0 574.32 326.61"><defs><style>.cls-1{font-size:132.24px;letter-spacing:0.03em;}.cls-1,.cls-3,.cls-4,.cls-5{fill:#fff;}.cls-1,.cls-4,.cls-5{font-family:ConthraxSb-Regular, Conthrax;}.cls-2{letter-spacing:0.04em;}.cls-4,.cls-5{font-size:78.16px;}.cls-4{letter-spacing:-0.1em;}.cls-5{letter-spacing:-0.1em;}</style></defs><title>Asset 13</title><g id="Layer_2" data-name="Layer 2"><g id="Layer_1-2" data-name="Layer 1"><text class="cls-1" transform="translate(0 112.4)">S<tspan class="cls-2" x="117.3" y="0">WIFT</tspan></text><path class="cls-3" d="M135.83,174.77a3.92,3.92,0,0,0-1.75-.93,10.14,10.14,0,0,0-2.66-.29h-11.8c-.32,0-.47.17-.47.5v14.22c0,.31.15.46.47.46h11.8a10.63,10.63,0,0,0,2.66-.28,4,4,0,0,0,1.75-.94,3.68,3.68,0,0,0,.95-1.73,10.53,10.53,0,0,0,.29-2.66v-4a10.59,10.59,0,0,0-.29-2.66A3.68,3.68,0,0,0,135.83,174.77Z"/><path class="cls-3" d="M7.26,142v77.79h559.8V142Zm135.32,41.57a14.65,14.65,0,0,1-.64,4.55,7.39,7.39,0,0,1-2,3.17,8.15,8.15,0,0,1-3.41,1.83,18.33,18.33,0,0,1-5,.6H114.72a1,1,0,0,1-1.08-1.08v-23a1,1,0,0,1,1.08-1.08h16.84a18.36,18.36,0,0,1,5,.59A8.16,8.16,0,0,1,140,171a7.3,7.3,0,0,1,2,3.16,14.69,14.69,0,0,1,.64,4.55Zm159-10.83c0,.53-.27.79-.82.79H285a9.9,9.9,0,0,0-2.32.23,3.19,3.19,0,0,0-1.48.79,3.05,3.05,0,0,0-.77,1.52,11,11,0,0,0-.22,2.35v.36h20.34a.7.7,0,0,1,.79.79v2.85a.7.7,0,0,1-.79.79H280.25v.61a11.14,11.14,0,0,0,.22,2.36,3,3,0,0,0,.77,1.51,3.11,3.11,0,0,0,1.48.79,9.39,9.39,0,0,0,2.32.23h15.73a.72.72,0,0,1,.82.8v3.41a.72.72,0,0,1-.82.8H284.93a18.2,18.2,0,0,1-4.64-.51,7.06,7.06,0,0,1-3.11-1.63,6.66,6.66,0,0,1-1.77-3,15.22,15.22,0,0,1-.55-4.4v-6.19a15.05,15.05,0,0,1,.55-4.39,6.7,6.7,0,0,1,1.77-2.94,7.29,7.29,0,0,1,3.11-1.65,17.72,17.72,0,0,1,4.64-.52h15.84c.55,0,.82.26.82.79Zm164.24-3.39L454,191a5.79,5.79,0,0,1-1.77,2.2,3.68,3.68,0,0,1-2,.54h-2.09a4.5,4.5,0,0,1-2.32-.54A5.56,5.56,0,0,1,444,191l-11.95-21.63a.74.74,0,0,1-.09-.59c.06-.15.25-.23.56-.23h4.54a1,1,0,0,1,.52.1,1.05,1.05,0,0,1,.3.37l10.55,19.35a.42.42,0,0,0,.43.26h.18a.45.45,0,0,0,.4-.26L459.86,169a.8.8,0,0,1,.82-.47h4.72c.29,0,.46.08.52.23A.74.74,0,0,1,465.83,169.37Z"/><text class="cls-4" transform="translate(6.98 305.35) scale(1.01 1)">G</text><text class="cls-5" transform="translate(125.82 305.35) scale(1.01 1)">A</text><text class="cls-5" transform="translate(251.92 305.35) scale(1.01 1)">M</text><text class="cls-5" transform="translate(391.28 305.35) scale(1.01 1)">E</text><text class="cls-5" transform="translate(504.93 305.35) scale(1.01 1)">S</text></g></g></svg>